<?xml version="1.0" encoding="UTF-8" standalone="no"?>
<!-- Uploaded to: SVG Repo, www.svgrepo.com, Generator: SVG Repo Mixer Tools -->

<svg
   viewBox="0 0 24 24"
   fill="none"
   version="1.1"
   id="svg1"
   sodipodi:docname="bolt.svg"
   inkscape:version="1.3.2 (091e20e, 2023-11-25, custom)"
   xmlns:inkscape="http://www.inkscape.org/namespaces/inkscape"
   xmlns:sodipodi="http://sodipodi.sourceforge.net/DTD/sodipodi-0.dtd"
   xmlns="http://www.w3.org/2000/svg"
   xmlns:svg="http://www.w3.org/2000/svg">
  <defs
     id="defs1" />
  <sodipodi:namedview
     id="namedview1"
     pagecolor="#000000"
     bordercolor="#000000"
     borderopacity="0.25"
     inkscape:showpageshadow="2"
     inkscape:pageopacity="0.0"
     inkscape:pagecheckerboard="0"
     inkscape:deskcolor="#d1d1d1"
     inkscape:zoom="1.01625"
     inkscape:window-width="1920"
     inkscape:window-height="1009"
     inkscape:window-x="-8"
     inkscape:window-y="-8"
     inkscape:window-maximized="1"
     inkscape:current-layer="svg1" />
  <path
     d="M 5.66953,9.91436 8.73167,5.77133 C 10.711,3.09327 11.7007,1.75425 12.6241,2.03721 c 0.9233,0.28297 0.9233,1.92528 0.9233,5.20991 v 0.3097 c 0,1.18469 0,1.77704 0.3786,2.14859 l 0.02,0.01925 c 0.3867,0.36374 1.0032,0.36374 2.2362,0.36374 2.2189,0 3.3284,0 3.7033,0.6729 0.0062,0.0111 0.0122,0.0224 0.0181,0.0337 0.354,0.6834 -0.2884,1.5525 -1.5732,3.2907 l -3.0621,4.143 c -1.9794,2.678 -2.9691,4.0171 -3.8925,3.7341 -0.9233,-0.283 -0.9233,-1.9253 -0.9233,-5.21 l 10e-5,-0.3095 c 0,-1.1848 0,-1.7771 -0.3786,-2.1487 l -0.02,-0.0192 C 9.6673,13.9117 9.05079,13.9117 7.81775,13.9117 c -2.21887,0 -3.3283,0 -3.70325,-0.673 C 4.10829,13.2276 4.10225,13.2164 4.09639,13.205 3.74244,12.5217 4.3848,11.6526 5.66953,9.91436 Z"
     fill="#1C274C"
     id="path1"
     style="fill:#0000ff" />
</svg>
