<?xml version="1.0" encoding="iso-8859-1"?>
<!-- Uploaded to: SVG Repo, www.svgrepo.com, Generator: SVG Repo Mixer Tools -->
<!DOCTYPE svg PUBLIC "-//W3C//DTD SVG 1.1//EN" "http://www.w3.org/Graphics/SVG/1.1/DTD/svg11.dtd">
<svg fill="#FFFFFF" version="1.1" id="Capa_1" xmlns="http://www.w3.org/2000/svg" xmlns:xlink="http://www.w3.org/1999/xlink"
	  viewBox="0 0 982.3 982.3" xml:space="preserve"
	>
<g>
	<path d="M982.3,130.74c0-34.5-29-61.8-63.5-59.899C713.6,82.24,603,148.44,545.9,203.24c-11.7,11.3-18.301,26.9-18.301,43.101
		v635.1c0,24.8,28.4,38.899,48.2,23.899c63.8-48.699,171.7-98.5,349.601-107.3c31.899-1.6,56.899-28,56.899-59.899V130.74
		L982.3,130.74z"/>
	<path d="M56.8,798.04c177.9,8.8,285.8,58.5,349.601,107.3c19.699,15.101,48.199,1,48.199-23.899v-635.1
		c0-16.301-6.6-31.9-18.3-43.101c-57.1-54.8-167.7-121-372.8-132.399C29,68.841,0,96.141,0,130.74v607.5
		C0,770.04,25,796.54,56.8,798.04z"/>
</g>
</svg>