<?xml version="1.0" encoding="UTF-8" standalone="no"?>
<!-- Uploaded to: SVG Repo, www.svgrepo.com, Generator: SVG Repo Mixer Tools -->

<svg
   
   viewBox="0 0 24 24"
   fill="none"
   version="1.1"
   id="svg3"
   sodipodi:docname="downloads.svg"
   inkscape:version="1.3.2 (091e20e, 2023-11-25, custom)"
   xmlns:inkscape="http://www.inkscape.org/namespaces/inkscape"
   xmlns:sodipodi="http://sodipodi.sourceforge.net/DTD/sodipodi-0.dtd"
   xmlns="http://www.w3.org/2000/svg"
   xmlns:svg="http://www.w3.org/2000/svg">
  <defs
     id="defs3" />
  <sodipodi:namedview
     id="namedview3"
     pagecolor="#000000"
     bordercolor="#000000"
     borderopacity="1"
     inkscape:showpageshadow="2"
     inkscape:pageopacity="0.0"
     inkscape:pagecheckerboard="0"
     inkscape:deskcolor="#d1d1d1"
     inkscape:zoom="1.01625"
     inkscape:cx="400"
     inkscape:cy="400"
     inkscape:window-width="1920"
     inkscape:window-height="1009"
     inkscape:window-x="-8"
     inkscape:window-y="-8"
     inkscape:window-maximized="1"
     inkscape:current-layer="svg3" />
  <path
     opacity="1"
     d="M 2,12 C 2,7.28595 2,4.92893 3.46447,3.46447 4.92893,2 7.28595,2 12,2 16.714,2 19.0711,2 20.5355,3.46447 22,4.92893 22,7.28595 22,12 c 0,4.714 0,7.0711 -1.4645,8.5355 C 19.0711,22 16.714,22 12,22 7.28595,22 4.92893,22 3.46447,20.5355 2,19.0711 2,16.714 2,12 Z"
     stroke="#FFFFFF"
     stroke-width="1"
     id="path3"
     style="opacity:1;mix-blend-mode:normal;stroke:#ffffff;fill:#ffffff;fill-opacity:1;stroke-width:0.99999;stroke-dasharray:none" />
  <path
     d="m 12,7 v 7 m 0,0 3,-3 m -3,3 -3,-3"
     stroke="#1C274C"
     stroke-width="1.5"
     stroke-linecap="round"
     stroke-linejoin="round"
     id="path1"
     style="stroke:#000000" />
  <path
     d="M 16,17 H 12 8"
     stroke="#1C274C"
     stroke-width="1.5"
     stroke-linecap="round"
     id="path2"
     style="stroke:#000000" />
</svg>
