<?xml version="1.0" encoding="UTF-8" standalone="no"?>
<!-- Uploaded to: SVG Repo, www.svgrepo.com, Generator: SVG Repo Mixer Tools -->

<svg
   
   viewBox="0 0 24 24"
   fill="none"
   version="1.1"
   id="svg1"
   sodipodi:docname="gear-svgrepo-com.svg"
   inkscape:version="1.3.2 (091e20e, 2023-11-25, custom)"
   xmlns:inkscape="http://www.inkscape.org/namespaces/inkscape"
   xmlns:sodipodi="http://sodipodi.sourceforge.net/DTD/sodipodi-0.dtd"
   xmlns="http://www.w3.org/2000/svg"
   xmlns:svg="http://www.w3.org/2000/svg">
  <defs
     id="defs1" />
  <sodipodi:namedview
     id="namedview1"
     pagecolor="#ffffff"
     bordercolor="#000000"
     borderopacity="0.25"
     inkscape:showpageshadow="2"
     inkscape:pageopacity="0.0"
     inkscape:pagecheckerboard="0"
     inkscape:deskcolor="#d1d1d1"
     inkscape:zoom="1.01625"
     inkscape:cx="400"
     inkscape:cy="400"
     inkscape:window-width="1920"
     inkscape:window-height="1009"
     inkscape:window-x="-8"
     inkscape:window-y="-8"
     inkscape:window-maximized="1"
     inkscape:current-layer="svg1" />
  <path
     fill-rule="evenodd"
     clip-rule="evenodd"
     d="m 12.7848,0.449982 c 1.0391,0 1.9319,0.715478 2.1274,1.704968 l 0.0869,0.44 c 0.3417,1.72947 2.1868,2.76227 3.9025,2.18445 l 0.4367,-0.14707 c 0.9816,-0.33058 2.0671,0.06125 2.5866,0.93372 l 0.7848,1.31781 c 0.5196,0.8725 0.3268,1.9798 -0.4593,2.63867 l -0.3496,0.29302 c -1.3741,1.15165 -1.3741,3.21725 0,4.36885 l 0.3496,0.293 c 0.7861,0.6589 0.9789,1.7662 0.4593,2.6387 l -0.7847,1.3178 c -0.5196,0.8725 -1.6051,1.2643 -2.5868,0.9337 l -0.4365,-0.1471 c -1.7158,-0.5779 -3.5609,0.4549 -3.9026,2.1845 l -0.0869,0.44 c -0.1955,0.9895 -1.0883,1.705 -2.1274,1.705 h -1.5696 c -1.0391,0 -1.93189,-0.7155 -2.12739,-1.7049 L 9.00082,21.4048 C 8.65909,19.6754 6.81395,18.6426 5.09822,19.2205 l -0.43643,0.147 C 3.68016,19.6982 2.59465,19.3063 2.07505,18.4338 L 1.2903,17.1161 C 0.770719,16.2436 0.963446,15.1363 1.74956,14.4774 l 0.34966,-0.293 c 1.37402,-1.1517 1.37402,-3.2172 0,-4.3688 L 1.74956,9.52254 C 0.963446,8.86366 0.77072,7.75638 1.2903,6.8839 L 2.07508,5.56608 C 2.59466,4.69359 3.68014,4.30176 4.66176,4.63236 L 5.09831,4.77939 C 6.81401,5.35722 8.65909,4.32449 9.00082,2.59506 L 9.0878,2.15487 C 9.28331,1.16542 10.176,0.449982 11.2152,0.449982 Z M 12,15.3 c 1.8225,0 3.3,-1.4775 3.3,-3.3 0,-1.8226 -1.4775,-3.30002 -3.3,-3.30002 -1.8226,0 -3.30003,1.47742 -3.30003,3.30002 0,1.8225 1.47743,3.3 3.30003,3.3 z"
     fill="#000000"
     id="path1"
     style="fill:#ffffff" />
</svg>
