<?xml version="1.0" encoding="UTF-8" standalone="no"?>
<!-- Uploaded to: SVG Repo, www.svgrepo.com, Generator: SVG Repo Mixer Tools -->

<svg
   
   viewBox="0 0 24 24"
   fill="none"
   version="1.1"
   id="svg2"
   sodipodi:docname="login-2-svgrepo-com.svg"
   inkscape:version="1.3.2 (091e20e, 2023-11-25, custom)"
   xmlns:inkscape="http://www.inkscape.org/namespaces/inkscape"
   xmlns:sodipodi="http://sodipodi.sourceforge.net/DTD/sodipodi-0.dtd"
   xmlns="http://www.w3.org/2000/svg"
   xmlns:svg="http://www.w3.org/2000/svg">
  <defs
     id="defs2" />
  <sodipodi:namedview
     id="namedview2"
     pagecolor="#ffffff"
     bordercolor="#000000"
     borderopacity="0.25"
     inkscape:showpageshadow="2"
     inkscape:pageopacity="0.0"
     inkscape:pagecheckerboard="0"
     inkscape:deskcolor="#d1d1d1"
     inkscape:zoom="1.01625"
     inkscape:cx="400"
     inkscape:cy="400"
     inkscape:window-width="1920"
     inkscape:window-height="1009"
     inkscape:window-x="-8"
     inkscape:window-y="-8"
     inkscape:window-maximized="1"
     inkscape:current-layer="svg2" />
  <path
     d="M 2.00098,11.999 H 16.001 m 0,0 -3.5,-2.99998 m 3.5,2.99998 -3.5,3"
     stroke="#1C274C"
     stroke-width="1.5"
     stroke-linecap="round"
     stroke-linejoin="round"
     id="path1"
     style="stroke:#ffffff" />
  <path
     d="M 9.00195,7 C 9.01406,4.82497 9.11051,3.64706 9.87889,2.87868 10.7576,2 12.1718,2 15.0002,2 h 1 c 2.8284,0 4.2427,0 5.1213,0.87868 C 22.0002,3.75736 22.0002,5.17157 22.0002,8 v 8 c 0,2.8284 0,4.2426 -0.8787,5.1213 C 20.2429,22 18.8286,22 16.0002,22 h -1 C 12.1718,22 10.7576,22 9.87889,21.1213 9.11051,20.3529 9.01406,19.175 9.00195,17"
     stroke="#1C274C"
     stroke-width="1.5"
     stroke-linecap="round"
     id="path2"
     style="stroke:#ffffff" />
</svg>
