<?xml version="1.0" encoding="UTF-8" standalone="no"?>
<!-- Uploaded to: SVG Repo, www.svgrepo.com, Generator: SVG Repo Mixer Tools -->

<svg
   
   viewBox="0 0 24 24"
   fill="none"
   version="1.1"
   id="svg6"
   sodipodi:docname="people-svgrepo-com.svg"
   inkscape:version="1.3.2 (091e20e, 2023-11-25, custom)"
   xmlns:inkscape="http://www.inkscape.org/namespaces/inkscape"
   xmlns:sodipodi="http://sodipodi.sourceforge.net/DTD/sodipodi-0.dtd"
   xmlns="http://www.w3.org/2000/svg"
   xmlns:svg="http://www.w3.org/2000/svg">
  <defs
     id="defs6" />
  <sodipodi:namedview
     id="namedview6"
     pagecolor="#4c4c4c"
     bordercolor="#000000"
     borderopacity="0.25"
     inkscape:showpageshadow="2"
     inkscape:pageopacity="0.0"
     inkscape:pagecheckerboard="0"
     inkscape:deskcolor="#d1d1d1"
     inkscape:zoom="1.01625"
     inkscape:cx="400"
     inkscape:cy="400"
     inkscape:window-width="1920"
     inkscape:window-height="1009"
     inkscape:window-x="-8"
     inkscape:window-y="-8"
     inkscape:window-maximized="1"
     inkscape:current-layer="svg6" />
  <path
     opacity="0.4"
     d="M17.5291 7.77C17.4591 7.76 17.3891 7.76 17.3191 7.77C15.7691 7.72 14.5391 6.45 14.5391 4.89C14.5391 3.3 15.8291 2 17.4291 2C19.0191 2 20.3191 3.29 20.3191 4.89C20.3091 6.45 19.0791 7.72 17.5291 7.77Z"
     fill="#292D32"
     id="path1"
     style="fill:#d4d7db;fill-opacity:1" />
  <path
     opacity="0.4"
     d="M20.7896 14.6999C19.6696 15.4499 18.0996 15.7299 16.6496 15.5399C17.0296 14.7199 17.2296 13.8099 17.2396 12.8499C17.2396 11.8499 17.0196 10.8999 16.5996 10.0699C18.0796 9.86992 19.6496 10.1499 20.7796 10.8999C22.3596 11.9399 22.3596 13.6499 20.7896 14.6999Z"
     fill="#292D32"
     id="path2"
     style="fill:#d6d8dc;fill-opacity:1" />
  <path
     opacity="0.4"
     d="M6.44039 7.77C6.51039 7.76 6.58039 7.76 6.65039 7.77C8.20039 7.72 9.43039 6.45 9.43039 4.89C9.43039 3.3 8.14039 2 6.54039 2C4.95039 2 3.65039 3.29 3.65039 4.89C3.66039 6.45 4.89039 7.72 6.44039 7.77Z"
     fill="#292D32"
     id="path3"
     style="fill:#d7dbdb;fill-opacity:1" />
  <path
     opacity="0.4"
     d="M6.54914 12.8501C6.54914 13.8201 6.75914 14.7401 7.13914 15.5701C5.72914 15.7201 4.25914 15.4201 3.17914 14.7101C1.59914 13.6601 1.59914 11.9501 3.17914 10.9001C4.24914 10.1801 5.75914 9.8901 7.17914 10.0501C6.76914 10.8901 6.54914 11.8401 6.54914 12.8501Z"
     fill="#292D32"
     id="path4"
     style="fill:#d4d7dc;fill-opacity:1" />
  <path
     d="m 12.1208,15.87 c -0.08,-0.01 -0.17,-0.01 -0.26,0 -1.84,-0.06 -3.31002,-1.57 -3.31002,-3.43 0,-1.9 1.53002,-3.44 3.44002,-3.44 1.9,0 3.44,1.54 3.44,3.44 0,1.86 -1.46,3.37 -3.31,3.43 z"
     fill="#292D32"
     id="path5"
     style="fill:#ffffff" />
  <path
     d="m 8.87078,17.9399 c -1.51,1.01 -1.51,2.67 0,3.67 1.72002,1.15 4.54002,1.15 6.26002,0 1.51,-1.01 1.51,-2.67 0,-3.67 -1.71,-1.15 -4.53,-1.15 -6.26002,0 z"
     fill="#292D32"
     id="path6"
     style="fill:#ffffff" />
</svg>
