<?xml version="1.0" encoding="UTF-8" standalone="no"?>
<!-- Uploaded to: SVG Repo, www.svgrepo.com, Generator: SVG Repo Mixer Tools -->

<svg
   fill="#000000"
   version="1.1"
   id="Layer_1"
   viewBox="0 0 297 297"
   xml:space="preserve"
   sodipodi:docname="settings.svg"
   inkscape:version="1.3.2 (091e20e, 2023-11-25, custom)"
   xmlns:inkscape="http://www.inkscape.org/namespaces/inkscape"
   xmlns:sodipodi="http://sodipodi.sourceforge.net/DTD/sodipodi-0.dtd"
   xmlns="http://www.w3.org/2000/svg"
   xmlns:svg="http://www.w3.org/2000/svg"><defs
   id="defs4"><inkscape:perspective
     sodipodi:type="inkscape:persp3d"
     inkscape:vp_x="0 : 148.5 : 1"
     inkscape:vp_y="0 : 1000 : 0"
     inkscape:vp_z="297 : 148.5 : 1"
     inkscape:persp3d-origin="148.5 : 99 : 1"
     id="perspective4" /></defs><sodipodi:namedview
   id="namedview4"
   pagecolor="#000000"
   bordercolor="#000000"
   borderopacity="0.25"
   inkscape:showpageshadow="2"
   inkscape:pageopacity="0.0"
   inkscape:pagecheckerboard="0"
   inkscape:deskcolor="#d1d1d1"
   inkscape:zoom="0.508125"
   inkscape:cx="406.39606"
   inkscape:cy="376.87577"
   inkscape:window-width="1920"
   inkscape:window-height="1009"
   inkscape:window-x="-8"
   inkscape:window-y="-8"
   inkscape:window-maximized="1"
   inkscape:current-layer="g4" />
<g
   id="g4">
	<g
   id="g3"
   transform="translate(14.612546)">
		<g
   id="g2">
			<path
   d="m 170.755,154.495 -13.94,-13.941 c 2.221,-4.142 4.02,-8.484 5.378,-12.984 h 19.715 c 3.314,0 6,-2.687 6,-6 V 92.251 c 0,-3.314 -2.687,-6 -6,-6 h -19.715 c -1.358,-4.5 -3.157,-8.842 -5.379,-12.983 l 13.941,-13.942 c 2.344,-2.343 2.344,-6.142 0,-8.485 L 150.024,30.11 c -2.342,-2.344 -6.143,-2.344 -8.485,0 l -13.941,13.941 c -4.142,-2.222 -8.484,-4.021 -12.984,-5.379 V 18.956 c 0,-3.314 -2.687,-6 -6,-6 H 79.295 c -3.314,0 -6,2.687 -6,6 v 19.715 c -4.5,1.358 -8.842,3.157 -12.983,5.379 L 46.372,30.109 c -1.126,-1.126 -2.652,-1.758 -4.243,-1.758 -1.591,0 -3.117,0.632 -4.242,1.757 L 17.153,50.839 c -2.344,2.344 -2.344,6.143 -10e-4,8.486 l 13.941,13.942 c -2.222,4.142 -4.021,8.484 -5.379,12.983 H 6 c -3.314,0 -6,2.687 -6,6 v 29.318 c 0,3.314 2.687,6 6,6 h 19.714 c 1.358,4.499 3.157,8.841 5.379,12.984 l -13.94,13.941 c -2.344,2.343 -2.344,6.142 0,8.485 l 20.731,20.731 c 2.341,2.343 6.142,2.344 8.485,0.001 L 60.31,169.77 c 4.143,2.222 8.485,4.021 12.984,5.379 v 19.715 c 0,3.314 2.687,6 6,6 h 29.318 c 3.314,0 6,-2.687 6,-6 V 175.15 c 4.499,-1.358 8.841,-3.157 12.983,-5.379 l 13.942,13.941 c 2.342,2.342 6.143,2.343 8.485,-10e-4 l 20.731,-20.731 c 2.346,-2.343 2.346,-6.142 0.002,-8.485 z M 93.954,129.339 c -12.367,0 -22.429,-10.062 -22.429,-22.429 0,-12.368 10.062,-22.429 22.429,-22.429 12.367,0 22.429,10.061 22.429,22.429 0,12.367 -10.062,22.429 -22.429,22.429 z"
   id="path1"
   style="fill:#ffffff" />
			<path
   d="m 272.80585,222.84109 -3.11714,-16.89734 c -0.2387,-1.29344 -0.98124,-2.43739 -2.06323,-3.18405 -1.08283,-0.74501 -2.41426,-1.02996 -3.70936,-0.79126 l -10.32606,1.90547 c -1.02335,-1.87161 -2.18299,-3.66062 -3.4723,-5.35878 l 5.95429,-8.64855 c 0.74501,-1.08282 1.02996,-2.41674 0.79126,-3.70935 -0.2387,-1.29262 -0.98123,-2.43739 -2.06323,-3.18322 l -14.15352,-9.74459 c -2.2532,-1.54949 -5.33979,-0.98289 -6.89258,1.27196 l -5.95346,8.64773 c -2.04754,-0.59882 -4.13142,-1.04401 -6.24421,-1.33144 l -1.90547,-10.32606 c -0.4964,-2.69178 -3.08576,-4.47418 -5.77258,-3.97448 l -16.89734,3.11714 c -1.29345,0.2387 -2.43739,0.98124 -3.18405,2.06323 -0.74501,1.08283 -1.02996,2.41674 -0.79126,3.70936 l 1.90547,10.32606 c -1.87161,1.02335 -3.66062,2.18299 -5.35878,3.4723 l -8.64855,-5.95429 c -1.08283,-0.74418 -2.41509,-1.02996 -3.71018,-0.79126 -1.29262,0.2387 -2.43739,0.98123 -3.18322,2.06323 l -9.74459,14.15352 c -0.74501,1.08283 -1.02997,2.41674 -0.79127,3.71018 0.2387,1.29262 0.98124,2.43739 2.06323,3.18322 l 8.64773,5.95347 c -0.59882,2.04671 -1.04401,4.13142 -1.33144,6.2442 l -10.32688,1.90548 c -1.29262,0.2387 -2.43739,0.98123 -3.18323,2.06323 -0.74501,1.08282 -1.02996,2.41673 -0.79126,3.70935 l 3.11797,16.89734 c 0.49723,2.69178 3.08494,4.47584 5.77341,3.97448 l 10.32606,-1.90547 c 1.02253,1.87078 2.18382,3.66062 3.47231,5.35878 l -5.95347,8.64773 c -0.74583,1.08282 -1.03079,2.41673 -0.79209,3.70935 0.2387,1.29262 0.98123,2.43739 2.06323,3.18322 l 14.15353,9.74459 c 2.25237,1.54949 5.33978,0.98288 6.89257,-1.27197 l 5.95347,-8.64772 c 2.04671,0.59964 4.13142,1.044 6.2442,1.33226 l 1.90548,10.32606 c 0.44023,2.38783 2.52411,4.05708 4.86816,4.05708 0.29817,0 0.60129,-0.0264 0.90442,-0.0834 l 16.89734,-3.11715 c 1.29344,-0.2387 2.43739,-0.98123 3.18405,-2.06323 0.74501,-1.08282 1.02996,-2.41673 0.79126,-3.70935 l -1.90547,-10.32606 c 1.8716,-1.02335 3.66062,-2.18299 5.35795,-3.4723 l 8.64855,5.95429 c 1.082,0.74418 2.41261,1.02748 3.70936,0.79126 1.29261,-0.2387 2.43738,-0.98123 3.18322,-2.06323 l 9.74459,-14.15352 c 1.55196,-2.25485 0.98288,-5.33979 -1.27197,-6.89258 l -8.64772,-5.95347 c 0.59964,-2.04671 1.044,-4.13141 1.33226,-6.2442 l 10.32606,-1.90547 c 2.69178,-0.4964 4.47171,-3.08081 3.97448,-5.77176 z m -47.48319,8.44124 c -3.66062,5.31583 -10.96205,6.66461 -16.28118,3.00399 -5.31666,-3.66145 -6.66379,-10.96452 -3.00317,-16.28118 1.77332,-2.57532 4.4428,-4.30569 7.51783,-4.87395 0.7161,-0.13215 1.43468,-0.1974 2.1483,-0.1974 2.34818,0 4.63937,0.70784 6.61423,2.06818 5.31583,3.65897 6.66296,10.96287 3.00399,16.28036 z"
   id="path2"
   style="fill:#ffffff;stroke-width:0.825953" />
		</g>
	</g>
</g>
</svg>
