<?xml version="1.0" encoding="UTF-8" standalone="no"?>
<!-- Uploaded to: SVG Repo, www.svgrepo.com, Generator: SVG Repo Mixer Tools -->

<svg
   version="1.1"
   id="Capa_1"
   viewBox="0 0 305 305"
   xml:space="preserve"
   sodipodi:docname="download-speed-svgrepo-com.svg"
   inkscape:version="1.3.2 (091e20e, 2023-11-25, custom)"
   xmlns:inkscape="http://www.inkscape.org/namespaces/inkscape"
   xmlns:sodipodi="http://sodipodi.sourceforge.net/DTD/sodipodi-0.dtd"
   xmlns="http://www.w3.org/2000/svg"
   xmlns:svg="http://www.w3.org/2000/svg"><defs
   id="defs2" /><sodipodi:namedview
   id="namedview2"
   pagecolor="#000000"
   bordercolor="#000000"
   borderopacity="0.25"
   inkscape:showpageshadow="2"
   inkscape:pageopacity="0.0"
   inkscape:pagecheckerboard="0"
   inkscape:deskcolor="#d1d1d1"
   inkscape:zoom="0.2540625"
   inkscape:cx="188.92989"
   inkscape:cy="635.67036"
   inkscape:window-width="1920"
   inkscape:window-height="1009"
   inkscape:window-x="-8"
   inkscape:window-y="-8"
   inkscape:window-maximized="1"
   inkscape:current-layer="Capa_1" />
<g
   id="g2">
	<path
   style="fill:#b8b8b8;fill-opacity:1"
   d="m 305,173.726 c 0,-41.662 -16.799,-79.469 -43.972,-107.02 -0.212,-0.282 -0.438,-0.558 -0.695,-0.815 -0.257,-0.257 -0.532,-0.483 -0.814,-0.694 C 231.968,38.024 194.161,21.226 152.5,21.226 c -41.661,0 -79.468,16.799 -107.02,43.971 -0.282,0.212 -0.557,0.438 -0.814,0.694 -0.257,0.257 -0.483,0.532 -0.695,0.815 C 16.799,94.257 0,132.064 0,173.726 c 0,40.729 15.859,79.018 44.655,107.821 0.004,0.004 0.008,0.009 0.012,0.013 0.003,0.002 0.005,0.005 0.008,0.007 0.004,0.004 0.008,0.008 0.012,0.012 1.464,1.464 3.383,2.195 5.302,2.195 1.92,0 3.84,-0.732 5.304,-2.197 0.125,-0.125 0.238,-0.258 0.352,-0.39 l 23.112,-23.113 c 2.929,-2.93 2.929,-7.678 0,-10.607 -2.929,-2.928 -7.678,-2.928 -10.606,0 L 50.115,265.503 C 29.084,242.1 16.883,212.646 15.205,181.226 h 25.507 c 4.142,0 7.5,-3.357 7.5,-7.5 0,-4.143 -3.358,-7.5 -7.5,-7.5 H 15.207 c 1.744,-32.272 14.668,-61.618 34.957,-84.229 l 17.987,17.987 c 1.464,1.464 3.384,2.196 5.303,2.196 1.919,0 3.839,-0.732 5.303,-2.196 2.929,-2.93 2.929,-7.678 0,-10.607 L 60.771,71.389 C 83.383,51.1 112.728,38.176 145,36.433 v 25.506 c 0,4.143 3.358,7.5 7.5,7.5 4.142,0 7.5,-3.357 7.5,-7.5 V 36.433 c 32.272,1.743 61.617,14.668 84.229,34.957 l -17.987,17.987 c -2.929,2.93 -2.929,7.678 0,10.607 1.464,1.464 3.384,2.196 5.303,2.196 1.919,0 3.839,-0.732 5.303,-2.196 l 17.987,-17.987 c 20.289,22.612 33.214,51.957 34.957,84.229 h -25.506 c -4.142,0 -7.5,3.357 -7.5,7.5 0,4.143 3.358,7.5 7.5,7.5 h 25.507 c -1.678,31.42 -13.878,60.875 -34.909,84.278 l -18.036,-18.037 c -2.928,-2.928 -7.677,-2.928 -10.606,0 -2.929,2.93 -2.929,7.678 0,10.607 l 23.485,23.485 c 1.464,1.464 3.384,2.196 5.303,2.196 0.959,0 1.919,-0.183 2.822,-0.549 0.903,-0.366 1.749,-0.915 2.482,-1.647 C 289.137,252.755 305,214.459 305,173.726 Z"
   id="path1" />
	<path
   style="fill:#ffffff;fill-opacity:1"
   d="m 186.956,87.718 c -3.847,-1.541 -8.211,0.327 -9.751,4.173 l -21.673,54.1 c -1.01,-0.108 -2.02,-0.182 -3.031,-0.182 -10.556,0 -20.091,5.847 -24.886,15.259 -5.012,9.839 -3.49353,21.595 3.66647,31.445 2.3302,3.20562 10.83087,9.129 21.21953,9.129 10.556,0 20.092,-5.847 24.886,-15.259 5.012,-9.839 3.728,-21.594 -3.427,-31.437 -0.732,-1.01 -1.654,-1.934 -2.671,-2.674 -0.547,-0.398 -1.106,-0.761 -1.665,-1.123 l 21.505,-53.681 c 1.54,-3.844 -0.328,-8.21 -4.173,-9.75 z m -22.936,91.856 c -2.221,4.359 -6.635,7.067 -11.52,7.067 -3.204,0 -6.429,-1.119 -9.589,-3.327 -3.6,-5.169 -4.307,-10.773 -1.93,-15.438 2.22,-4.359 6.634,-7.067 11.52,-7.067 1.558,0 3.12,0.27 4.678,0.795 0.051,0.021 0.098,0.048 0.15,0.069 0.164,0.065 0.329,0.118 0.494,0.171 1.43,0.549 2.854,1.305 4.266,2.291 3.599,5.169 4.307,10.774 1.931,15.439 z"
   id="path2"
   sodipodi:nodetypes="cccscssccsccccsccsccccc" />
</g>
</svg>
