<?xml version="1.0" encoding="UTF-8" standalone="no"?>
<!-- Uploaded to: SVG Repo, www.svgrepo.com, Generator: SVG Repo Mixer Tools -->

<svg
   
   viewBox="0 0 24 24"
   fill="none"
   version="1.1"
   id="svg2"
   sodipodi:docname="view-rows-svgrepo-com.svg"
   inkscape:version="1.3.2 (091e20e, 2023-11-25, custom)"
   xmlns:inkscape="http://www.inkscape.org/namespaces/inkscape"
   xmlns:sodipodi="http://sodipodi.sourceforge.net/DTD/sodipodi-0.dtd"
   xmlns="http://www.w3.org/2000/svg"
   xmlns:svg="http://www.w3.org/2000/svg">
  <defs
     id="defs2" />
  <sodipodi:namedview
     id="namedview2"
     pagecolor="#ffffff"
     bordercolor="#000000"
     borderopacity="0.25"
     inkscape:showpageshadow="2"
     inkscape:pageopacity="0.0"
     inkscape:pagecheckerboard="0"
     inkscape:deskcolor="#d1d1d1"
     inkscape:zoom="1.01625"
     inkscape:cx="400"
     inkscape:cy="400"
     inkscape:window-width="1920"
     inkscape:window-height="1009"
     inkscape:window-x="-8"
     inkscape:window-y="-8"
     inkscape:window-maximized="1"
     inkscape:current-layer="svg2" />
  <path
     fill-rule="evenodd"
     clip-rule="evenodd"
     d="M 23,4 C 23,2.34315 21.6569,1 20,1 H 4 C 2.34315,1 1,2.34315 1,4 v 4 c 0,1.65685 1.34315,3 3,3 h 16 c 1.6569,0 3,-1.34315 3,-3 z M 21,4 C 21,3.44772 20.5523,3 20,3 H 4 C 3.44772,3 3,3.44772 3,4 v 4 c 0,0.55228 0.44772,1 1,1 h 16 c 0.5523,0 1,-0.44772 1,-1 z"
     fill="#0F0F0F"
     id="path1"
     style="fill:#ffffff" />
  <path
     fill-rule="evenodd"
     clip-rule="evenodd"
     d="m 23,16 c 0,-1.6569 -1.3431,-3 -3,-3 H 4 c -1.65685,0 -3,1.3431 -3,3 v 4 c 0,1.6569 1.34315,3 3,3 h 16 c 1.6569,0 3,-1.3431 3,-3 z m -2,0 c 0,-0.5523 -0.4477,-1 -1,-1 H 4 c -0.55228,0 -1,0.4477 -1,1 v 4 c 0,0.5523 0.44772,1 1,1 h 16 c 0.5523,0 1,-0.4477 1,-1 z"
     fill="#0F0F0F"
     id="path2"
     style="fill:#ffffff" />
</svg>
